<svg width="102" height="25" viewBox="0 0 102 25" fill="none" xmlns="http://www.w3.org/2000/svg">
<path d="M15.6005 10.1677C15.3446 10.0252 15.0157 10.0252 14.7232 10.1677L12.6762 11.3427L11.2872 12.0905L9.27676 13.2656C9.02089 13.408 8.69191 13.408 8.39948 13.2656L6.82768 12.3398C6.5718 12.1973 6.38903 11.9125 6.38903 11.592V9.81157C6.38903 9.52671 6.53525 9.24184 6.82768 9.0638L8.39948 8.17359C8.65535 8.03116 8.98433 8.03116 9.27676 8.17359L10.8486 9.09941C11.1044 9.24184 11.2872 9.52671 11.2872 9.84718V11.0223L12.6762 10.2389V9.02819C12.6762 8.74332 12.53 8.45846 12.2376 8.28042L9.31332 6.60682C9.05744 6.46439 8.72846 6.46439 8.43603 6.60682L5.43864 8.31602C5.14621 8.45846 5 8.74332 5 9.02819V12.3754C5 12.6602 5.14621 12.9451 5.43864 13.1231L8.39948 14.7967C8.65535 14.9392 8.98433 14.9392 9.27676 14.7967L11.2872 13.6573L12.6762 12.8739L14.6867 11.7344C14.9426 11.592 15.2715 11.592 15.564 11.7344L17.1358 12.6246C17.3916 12.7671 17.5744 13.0519 17.5744 13.3724V15.1528C17.5744 15.4377 17.4282 15.7226 17.1358 15.9006L15.6005 16.7908C15.3446 16.9332 15.0157 16.9332 14.7232 16.7908L13.1514 15.9006C12.8956 15.7582 12.7128 15.4733 12.7128 15.1528V14.0134L11.3238 14.7967V15.9718C11.3238 16.2567 11.47 16.5415 11.7624 16.7196L14.7232 18.3932C14.9791 18.5356 15.3081 18.5356 15.6005 18.3932L18.5614 16.7196C18.8172 16.5772 19 16.2923 19 15.9718V12.589C19 12.3042 18.8538 12.0193 18.5614 11.8412L15.6005 10.1677Z" fill="#8247E5"/>
<path d="M36.016 7.3H31.824V18.5H33.008V14.964H36.016C38.864 14.964 40.592 13.524 40.592 11.14C40.592 8.74 38.864 7.3 36.016 7.3ZM35.984 13.924H33.008V8.324H35.984C38.224 8.324 39.408 9.348 39.408 11.14C39.408 12.9 38.224 13.924 35.984 13.924ZM47.1053 18.58C49.5693 18.58 51.3773 16.788 51.3773 14.292C51.3773 11.796 49.5693 10.02 47.1053 10.02C44.6413 10.02 42.8173 11.796 42.8173 14.292C42.8173 16.788 44.6413 18.58 47.1053 18.58ZM47.1053 17.572C45.3133 17.572 43.9693 16.26 43.9693 14.292C43.9693 12.324 45.3133 11.012 47.1053 11.012C48.8973 11.012 50.2253 12.324 50.2253 14.292C50.2253 16.26 48.8973 17.572 47.1053 17.572ZM54.4965 18.5H55.6325V6.628H54.4965V18.5ZM65.5454 10.084L62.3774 17.236L59.2094 10.084H58.0254L61.7854 18.484L61.4174 19.3C60.9374 20.356 60.4254 20.708 59.6734 20.708C59.0654 20.708 58.5534 20.484 58.1374 20.068L57.6094 20.916C58.1214 21.428 58.8734 21.684 59.6574 21.684C60.8574 21.684 61.7534 21.156 62.4574 19.508L66.6654 10.084H65.5454ZM75.5349 10.084V11.7C74.8309 10.596 73.6149 10.02 72.2069 10.02C69.8069 10.02 67.9829 11.668 67.9829 14.084C67.9829 16.5 69.8069 18.18 72.2069 18.18C73.5829 18.18 74.7829 17.62 75.4869 16.548V17.62C75.4869 19.7 74.5109 20.676 72.3829 20.676C71.0869 20.676 69.8709 20.244 69.0709 19.524L68.4949 20.388C69.3749 21.22 70.8789 21.684 72.4149 21.684C75.1989 21.684 76.6229 20.372 76.6229 17.476V10.084H75.5349ZM72.3189 17.172C70.4629 17.172 69.1349 15.908 69.1349 14.084C69.1349 12.26 70.4629 11.012 72.3189 11.012C74.1749 11.012 75.5189 12.26 75.5189 14.084C75.5189 15.908 74.1749 17.172 72.3189 17.172ZM84.0396 18.58C86.5036 18.58 88.3116 16.788 88.3116 14.292C88.3116 11.796 86.5036 10.02 84.0396 10.02C81.5756 10.02 79.7516 11.796 79.7516 14.292C79.7516 16.788 81.5756 18.58 84.0396 18.58ZM84.0396 17.572C82.2476 17.572 80.9036 16.26 80.9036 14.292C80.9036 12.324 82.2476 11.012 84.0396 11.012C85.8316 11.012 87.1596 12.324 87.1596 14.292C87.1596 16.26 85.8316 17.572 84.0396 17.572ZM95.7189 10.02C94.2629 10.02 93.1269 10.612 92.5189 11.636V10.084H91.4309V18.5H92.5669V14.084C92.5669 12.164 93.7029 11.044 95.5109 11.044C97.1109 11.044 98.0389 11.956 98.0389 13.732V18.5H99.1749V13.62C99.1749 11.204 97.7669 10.02 95.7189 10.02Z" fill="#676767"/>
</svg>
