<svg width="163" height="20" viewBox="0 0 163 20" fill="none" xmlns="http://www.w3.org/2000/svg">
<g clip-path="url(#clip0_1_2330)">
<mask id="mask0_1_2330" style="mask-type:alpha" maskUnits="userSpaceOnUse" x="6" y="7" width="13" height="13">
<path fill-rule="evenodd" clip-rule="evenodd" d="M10.0979 7.55281C9.88025 7.42731 9.61222 7.42739 9.39468 7.55301L6.93155 8.97538C6.65 9.13797 6.47656 9.4384 6.47656 9.76353V15.5795C6.47656 15.9047 6.65 16.2051 6.93155 16.3677L11.9689 19.2766C12.2495 19.4386 12.5952 19.4392 12.8765 19.2781L17.9257 16.3847C18.2095 16.2221 18.3841 15.9198 18.3834 15.5928L18.3692 9.77752C18.3684 9.45387 18.1958 9.15499 17.9158 8.99255L15.4642 7.5699C15.2472 7.44397 14.9795 7.44316 14.7617 7.56779C14.2913 7.837 14.2893 8.51469 14.7581 8.78673L16.511 9.80389C16.7909 9.96633 16.9635 10.2652 16.9643 10.5889L16.9745 14.7786C16.9753 15.1056 16.8006 15.4079 16.5169 15.5705L12.8792 17.655C12.598 17.8162 12.2522 17.8156 11.9716 17.6535L8.33841 15.5555C8.05686 15.3929 7.88342 15.0925 7.88342 14.7674V10.5757C7.88342 10.2506 8.05686 9.95014 8.33841 9.78755L10.0982 8.77133C10.5673 8.50048 10.5671 7.8234 10.0979 7.55281Z" fill="#232323"/>
<path d="M10.0982 8.77133L10.0898 8.75683L10.0982 8.77133ZM8.33841 9.78755L8.33004 9.77305L8.33841 9.78755ZM8.33841 15.5555L8.33004 15.57L8.33841 15.5555ZM12.8792 17.655L12.8875 17.6696L12.8792 17.655ZM16.9745 14.7786L16.9912 14.7786L16.9745 14.7786ZM16.5169 15.5705L16.5252 15.585L16.5169 15.5705ZM16.511 9.80389L16.5026 9.81838L16.511 9.80389ZM16.9643 10.5889L16.9475 10.5889L16.9643 10.5889ZM15.4642 7.5699L15.4558 7.58438L15.4642 7.5699ZM14.7617 7.56779L14.7701 7.58232L14.7617 7.56779ZM18.3692 9.77752L18.3859 9.77747L18.3692 9.77752ZM17.9158 8.99255L17.9074 9.00704L17.9158 8.99255ZM17.9257 16.3847L17.9174 16.3701L17.9257 16.3847ZM18.3834 15.5928L18.3666 15.5928L18.3834 15.5928ZM11.9689 19.2766L11.9772 19.262L11.9689 19.2766ZM12.8765 19.2781L12.8681 19.2635L12.8765 19.2781ZM9.39468 7.55301L9.3863 7.53851L9.39468 7.55301ZM6.93993 8.98989L9.40306 7.56752L9.3863 7.53851L6.92318 8.96088L6.93993 8.98989ZM6.49331 15.5795V9.76353H6.45981V15.5795H6.49331ZM11.9772 19.262L6.93993 16.3532L6.92318 16.3822L11.9605 19.2911L11.9772 19.262ZM17.9174 16.3701L12.8681 19.2635L12.8848 19.2926L17.9341 16.3992L17.9174 16.3701ZM18.3524 9.77756L18.3666 15.5928L18.4001 15.5928L18.3859 9.77747L18.3524 9.77756ZM15.4558 7.58438L17.9074 9.00704L17.9242 8.97807L15.4726 7.55541L15.4558 7.58438ZM14.7497 8.80121L16.5026 9.81838L16.5194 9.78941L14.7665 8.77224L14.7497 8.80121ZM16.9475 10.5889L16.9578 14.7787L16.9912 14.7786L16.981 10.5888L16.9475 10.5889ZM16.5086 15.556L12.8708 17.6405L12.8875 17.6696L16.5252 15.585L16.5086 15.556ZM11.9799 17.639L8.34679 15.541L8.33004 15.57L11.9632 17.668L11.9799 17.639ZM7.90017 14.7674V10.5757H7.86668V14.7674H7.90017ZM8.34679 9.80206L10.1066 8.78583L10.0898 8.75683L8.33004 9.77305L8.34679 9.80206ZM10.1066 8.78583C10.5868 8.50853 10.5866 7.81533 10.1062 7.5383L10.0895 7.56732C10.5475 7.83146 10.5477 8.49242 10.0898 8.75683L10.1066 8.78583ZM7.90017 10.5757C7.90017 10.2566 8.07042 9.96165 8.34679 9.80206L8.33004 9.77305C8.0433 9.93863 7.86668 10.2446 7.86668 10.5757H7.90017ZM8.34679 15.541C8.07042 15.3814 7.90017 15.0865 7.90017 14.7674H7.86668C7.86668 15.0985 8.0433 15.4044 8.33004 15.57L8.34679 15.541ZM12.8708 17.6405C12.5948 17.7987 12.2555 17.7981 11.9799 17.639L11.9632 17.668C12.249 17.8331 12.6011 17.8337 12.8875 17.6696L12.8708 17.6405ZM16.9578 14.7787C16.9585 15.0997 16.7871 15.3964 16.5086 15.556L16.5252 15.585C16.8142 15.4195 16.9921 15.1116 16.9912 14.7786L16.9578 14.7787ZM16.5026 9.81838C16.7773 9.97783 16.9468 10.2712 16.9475 10.5889L16.981 10.5888C16.9802 10.2592 16.8044 9.95484 16.5194 9.78941L16.5026 9.81838ZM14.7534 7.55325C14.2718 7.82887 14.2697 8.5227 14.7497 8.80121L14.7665 8.77224C14.3088 8.50669 14.3108 7.84513 14.7701 7.58232L14.7534 7.55325ZM15.4726 7.55541C15.2504 7.42648 14.9764 7.42566 14.7534 7.55325L14.7701 7.58232C14.9826 7.46067 15.2439 7.46145 15.4558 7.58438L15.4726 7.55541ZM18.3859 9.77747C18.3851 9.44787 18.2093 9.1435 17.9242 8.97807L17.9074 9.00704C18.1822 9.16649 18.3516 9.45987 18.3524 9.77756L18.3859 9.77747ZM17.9341 16.3992C18.223 16.2336 18.4009 15.9258 18.4001 15.5928L18.3666 15.5928C18.3674 15.9138 18.1959 16.2105 17.9174 16.3701L17.9341 16.3992ZM11.9605 19.2911C12.2463 19.4561 12.5984 19.4567 12.8848 19.2926L12.8681 19.2635C12.5921 19.4217 12.2527 19.4212 11.9772 19.262L11.9605 19.2911ZM6.45981 15.5795C6.45981 15.9107 6.63644 16.2166 6.92318 16.3822L6.93993 16.3532C6.66356 16.1936 6.49331 15.8987 6.49331 15.5795H6.45981ZM9.40306 7.56752C9.61542 7.44488 9.87707 7.44481 10.0895 7.56732L10.1062 7.5383C9.88344 7.40981 9.60903 7.40989 9.3863 7.53851L9.40306 7.56752ZM6.92318 8.96088C6.63644 9.12646 6.45981 9.43242 6.45981 9.76353H6.49331C6.49331 9.44438 6.66356 9.14948 6.93993 8.98989L6.92318 8.96088Z" fill="white"/>
</mask>
<g mask="url(#mask0_1_2330)">
<path fill-rule="evenodd" clip-rule="evenodd" d="M10.0979 7.55281C9.88025 7.42731 9.61222 7.42739 9.39468 7.55301L6.93155 8.97538C6.65 9.13797 6.47656 9.4384 6.47656 9.76353V15.5795C6.47656 15.9047 6.65 16.2051 6.93155 16.3677L11.9689 19.2766C12.2495 19.4386 12.5952 19.4392 12.8765 19.2781L17.9257 16.3847C18.2095 16.2221 18.3841 15.9198 18.3834 15.5928L18.3692 9.77752C18.3684 9.45387 18.1958 9.15499 17.9158 8.99255L15.4642 7.5699C15.2472 7.44397 14.9795 7.44316 14.7617 7.56779C14.2913 7.837 14.2893 8.51469 14.7581 8.78673L16.511 9.80389C16.7909 9.96633 16.9635 10.2652 16.9643 10.5889L16.9745 14.7786C16.9753 15.1056 16.8006 15.4079 16.5169 15.5705L12.8792 17.655C12.598 17.8162 12.2522 17.8156 11.9716 17.6535L8.33841 15.5555C8.05686 15.3929 7.88342 15.0925 7.88342 14.7674V10.5757C7.88342 10.2506 8.05686 9.95014 8.33841 9.78755L10.0982 8.77133C10.5673 8.50048 10.5671 7.8234 10.0979 7.55281Z" fill="#232323"/>
<path d="M10.0982 8.77133L10.0898 8.75683L10.0982 8.77133ZM8.33841 9.78755L8.33004 9.77305L8.33841 9.78755ZM8.33841 15.5555L8.33004 15.57L8.33841 15.5555ZM12.8792 17.655L12.8875 17.6696L12.8792 17.655ZM16.9745 14.7786L16.9912 14.7786L16.9745 14.7786ZM16.5169 15.5705L16.5252 15.585L16.5169 15.5705ZM16.511 9.80389L16.5026 9.81838L16.511 9.80389ZM16.9643 10.5889L16.9475 10.5889L16.9643 10.5889ZM15.4642 7.5699L15.4558 7.58438L15.4642 7.5699ZM14.7617 7.56779L14.7701 7.58232L14.7617 7.56779ZM18.3692 9.77752L18.3859 9.77747L18.3692 9.77752ZM17.9158 8.99255L17.9074 9.00704L17.9158 8.99255ZM17.9257 16.3847L17.9174 16.3701L17.9257 16.3847ZM18.3834 15.5928L18.3666 15.5928L18.3834 15.5928ZM11.9689 19.2766L11.9772 19.262L11.9689 19.2766ZM12.8765 19.2781L12.8681 19.2635L12.8765 19.2781ZM9.39468 7.55301L9.3863 7.53851L9.39468 7.55301ZM6.93993 8.98989L9.40306 7.56752L9.3863 7.53851L6.92318 8.96088L6.93993 8.98989ZM6.49331 15.5795V9.76353H6.45981V15.5795H6.49331ZM11.9772 19.262L6.93993 16.3532L6.92318 16.3822L11.9605 19.2911L11.9772 19.262ZM17.9174 16.3701L12.8681 19.2635L12.8848 19.2926L17.9341 16.3992L17.9174 16.3701ZM18.3524 9.77756L18.3666 15.5928L18.4001 15.5928L18.3859 9.77747L18.3524 9.77756ZM15.4558 7.58438L17.9074 9.00704L17.9242 8.97807L15.4726 7.55541L15.4558 7.58438ZM14.7497 8.80121L16.5026 9.81838L16.5194 9.78941L14.7665 8.77224L14.7497 8.80121ZM16.9475 10.5889L16.9578 14.7787L16.9912 14.7786L16.981 10.5888L16.9475 10.5889ZM16.5086 15.556L12.8708 17.6405L12.8875 17.6696L16.5252 15.585L16.5086 15.556ZM11.9799 17.639L8.34679 15.541L8.33004 15.57L11.9632 17.668L11.9799 17.639ZM7.90017 14.7674V10.5757H7.86668V14.7674H7.90017ZM8.34679 9.80206L10.1066 8.78583L10.0898 8.75683L8.33004 9.77305L8.34679 9.80206ZM10.1066 8.78583C10.5868 8.50853 10.5866 7.81533 10.1062 7.5383L10.0895 7.56732C10.5475 7.83146 10.5477 8.49242 10.0898 8.75683L10.1066 8.78583ZM7.90017 10.5757C7.90017 10.2566 8.07042 9.96165 8.34679 9.80206L8.33004 9.77305C8.0433 9.93863 7.86668 10.2446 7.86668 10.5757H7.90017ZM8.34679 15.541C8.07042 15.3814 7.90017 15.0865 7.90017 14.7674H7.86668C7.86668 15.0985 8.0433 15.4044 8.33004 15.57L8.34679 15.541ZM12.8708 17.6405C12.5948 17.7987 12.2555 17.7981 11.9799 17.639L11.9632 17.668C12.249 17.8331 12.6011 17.8337 12.8875 17.6696L12.8708 17.6405ZM16.9578 14.7787C16.9585 15.0997 16.7871 15.3964 16.5086 15.556L16.5252 15.585C16.8142 15.4195 16.9921 15.1116 16.9912 14.7786L16.9578 14.7787ZM16.5026 9.81838C16.7773 9.97783 16.9468 10.2712 16.9475 10.5889L16.981 10.5888C16.9802 10.2592 16.8044 9.95484 16.5194 9.78941L16.5026 9.81838ZM14.7534 7.55325C14.2718 7.82887 14.2697 8.5227 14.7497 8.80121L14.7665 8.77224C14.3088 8.50669 14.3108 7.84513 14.7701 7.58232L14.7534 7.55325ZM15.4726 7.55541C15.2504 7.42648 14.9764 7.42566 14.7534 7.55325L14.7701 7.58232C14.9826 7.46067 15.2439 7.46145 15.4558 7.58438L15.4726 7.55541ZM18.3859 9.77747C18.3851 9.44787 18.2093 9.1435 17.9242 8.97807L17.9074 9.00704C18.1822 9.16649 18.3516 9.45987 18.3524 9.77756L18.3859 9.77747ZM17.9341 16.3992C18.223 16.2336 18.4009 15.9258 18.4001 15.5928L18.3666 15.5928C18.3674 15.9138 18.1959 16.2105 17.9174 16.3701L17.9341 16.3992ZM11.9605 19.2911C12.2463 19.4561 12.5984 19.4567 12.8848 19.2926L12.8681 19.2635C12.5921 19.4217 12.2527 19.4212 11.9772 19.262L11.9605 19.2911ZM6.45981 15.5795C6.45981 15.9107 6.63644 16.2166 6.92318 16.3822L6.93993 16.3532C6.66356 16.1936 6.49331 15.8987 6.49331 15.5795H6.45981ZM9.40306 7.56752C9.61542 7.44488 9.87707 7.44481 10.0895 7.56732L10.1062 7.5383C9.88344 7.40981 9.60903 7.40989 9.3863 7.53851L9.40306 7.56752ZM6.92318 8.96088C6.63644 9.12646 6.45981 9.43242 6.45981 9.76353H6.49331C6.49331 9.44438 6.66356 9.14948 6.93993 8.98989L6.92318 8.96088Z" fill="#232323"/>
</g>
<path d="M15.2984 6.52557L12.8907 7.90916C12.609 8.07105 12.2624 8.07047 11.9812 7.90764L9.57805 6.51598C9.29704 6.35325 9.12402 6.05313 9.12402 5.7284V2.94235C9.12402 2.61762 9.29704 2.31749 9.57805 2.15476L11.9783 0.764763C12.261 0.601047 12.6098 0.601416 12.8922 0.765729L15.296 2.16454C15.5753 2.32712 15.7475 2.6257 15.7483 2.94895L15.7551 5.73425C15.7559 6.06085 15.5816 6.36284 15.2984 6.52557Z" fill="#232323" stroke="#232323" stroke-width="0.0334967"/>
<path d="M0.716797 12.8281L7.18166 12.8281" stroke="#232323" stroke-width="1.40686" stroke-linecap="round"/>
<path d="M17.833 12.8281L24.2979 12.8281" stroke="#232323" stroke-width="1.40686" stroke-linecap="round"/>
<path d="M2.22168 18.7344L7.37752 15.7398" stroke="#232323" stroke-width="1.40686" stroke-linecap="round"/>
<path d="M22.6201 18.7344L17.4643 15.7398" stroke="#232323" stroke-width="1.40686" stroke-linecap="round"/>
<path d="M2.02246 6.96875L7.1783 9.96337" stroke="#232323" stroke-width="1.40686" stroke-linecap="round"/>
<path d="M22.8271 6.96875L17.6713 9.96337" stroke="#232323" stroke-width="1.40686" stroke-linecap="round"/>
</g>
<path d="M42.4918 10.176C43.3558 9.712 43.9318 8.864 43.9318 7.712C43.9318 5.936 42.4918 4.8 39.8038 4.8H34.5558V16H40.1238C43.0038 16 44.5078 14.88 44.5078 12.96C44.5078 11.504 43.6918 10.56 42.4918 10.176ZM39.5798 6.432C41.0198 6.432 41.8358 6.944 41.8358 7.984C41.8358 9.008 41.0198 9.52 39.5798 9.52H36.6358V6.432H39.5798ZM39.9958 14.368H36.6358V11.136H39.9958C41.5638 11.136 42.4118 11.632 42.4118 12.752C42.4118 13.872 41.5638 14.368 39.9958 14.368ZM52.3436 16.16C55.3996 16.16 57.2396 14.384 57.2396 11.12V4.8H55.1916V11.04C55.1916 13.344 54.1676 14.336 52.3596 14.336C50.5516 14.336 49.5116 13.344 49.5116 11.04V4.8H47.4316V11.12C47.4316 14.384 49.2716 16.16 52.3436 16.16ZM68.6006 13.76C67.8806 14.176 67.0966 14.336 66.2966 14.336C63.9286 14.336 62.2486 12.672 62.2486 10.4C62.2486 8.08 63.9286 6.464 66.3126 6.464C67.5126 6.464 68.5206 6.864 69.4006 7.744L70.7126 6.464C69.6566 5.264 68.0886 4.64 66.2166 4.64C62.7126 4.64 60.1526 7.056 60.1526 10.4C60.1526 13.744 62.7126 16.16 66.1846 16.16C67.7686 16.16 69.4006 15.68 70.5686 14.736V10.272H68.6006V13.76ZM81.6059 16H83.6859V6.56H87.3979V4.8H77.8939V6.56H81.6059V16ZM99.3269 16L96.7509 12.32C98.2709 11.728 99.1349 10.48 99.1349 8.784C99.1349 6.304 97.3109 4.8 94.3669 4.8H89.7589V16H91.8389V12.736H94.3669C94.5109 12.736 94.6549 12.736 94.7989 12.72L97.0869 16H99.3269ZM97.0389 8.784C97.0389 10.192 96.0949 11.024 94.2709 11.024H91.8389V6.56H94.2709C96.0949 6.56 97.0389 7.376 97.0389 8.784ZM110.646 16H112.822L107.766 4.8H105.718L100.678 16H102.822L103.926 13.408H109.526L110.646 16ZM104.63 11.776L106.726 6.88L108.838 11.776H104.63ZM120.074 16.16C121.914 16.16 123.482 15.504 124.522 14.288L123.178 13.008C122.362 13.904 121.354 14.336 120.186 14.336C117.866 14.336 116.186 12.704 116.186 10.4C116.186 8.096 117.866 6.464 120.186 6.464C121.354 6.464 122.362 6.896 123.178 7.776L124.522 6.512C123.482 5.296 121.914 4.64 120.09 4.64C116.65 4.64 114.09 7.056 114.09 10.4C114.09 13.744 116.65 16.16 120.074 16.16ZM135.123 16H137.555L132.563 9.808L137.267 4.8H134.931L129.395 10.544V4.8H127.315V16H129.395V13.136L131.171 11.312L135.123 16ZM141.851 14.256V11.168H147.259V9.456H141.851V6.544H147.947V4.8H139.771V16H148.171V14.256H141.851ZM160.858 16L158.282 12.32C159.802 11.728 160.666 10.48 160.666 8.784C160.666 6.304 158.842 4.8 155.898 4.8H151.29V16H153.37V12.736H155.898C156.042 12.736 156.186 12.736 156.33 12.72L158.618 16H160.858ZM158.57 8.784C158.57 10.192 157.626 11.024 155.802 11.024H153.37V6.56H155.802C157.626 6.56 158.57 7.376 158.57 8.784Z" fill="black"/>
<defs>
<clipPath id="clip0_1_2330">
<rect width="25.0519" height="19" fill="white" transform="translate(0 0.5)"/>
</clipPath>
</defs>
</svg>
