<svg width="34" height="33" viewBox="0 0 34 33" fill="none" xmlns="http://www.w3.org/2000/svg">
<path d="M20.3752 29.0567C20.3752 37.5234 13.5117 44.3869 5.04503 44.3869C-3.4216 44.3869 -10.2852 37.5234 -10.2852 29.0567C-10.2852 20.5901 -3.4216 13.7266 5.04503 13.7266C13.5117 13.7266 20.3752 20.5901 20.3752 29.0567Z" fill="#232323"/>
<path d="M37.6994 6.20519C37.6994 14.6718 30.8359 21.5354 22.3692 21.5354C13.9026 21.5354 7.03906 14.6718 7.03906 6.20519C7.03906 -2.26144 13.9026 -9.125 22.3692 -9.125C30.8359 -9.125 37.6994 -2.26144 37.6994 6.20519Z" fill="#232323"/>
<path d="M25.6321 13.5309C25.6321 24.1988 16.984 32.8469 6.31604 32.8469C-4.35192 32.8469 -13 24.1988 -13 13.5309C-13 2.86293 -4.35192 -5.78516 6.31604 -5.78516C16.984 -5.78516 25.6321 2.86293 25.6321 13.5309Z" fill="#FFD600"/>
<path d="M8.66504 15.2598L36.61 -3.62282L53.7759 21.7816L25.831 40.6642L8.66504 15.2598Z" fill="#232323"/>
<path d="M28.7061 17.4922C28.7061 21.082 25.7959 23.9922 22.2061 23.9922C18.6162 23.9922 15.7061 21.082 15.7061 17.4922C15.7061 13.9023 18.6162 10.9922 22.2061 10.9922C25.7959 10.9922 28.7061 13.9023 28.7061 17.4922Z" fill="white"/>
</svg>
