<svg width="40" height="41" viewBox="0 0 40 41" fill="none" xmlns="http://www.w3.org/2000/svg">
<rect y="0.5" width="40" height="40" rx="20" fill="#F6F6F6" fill-opacity="0.4"/>
<path fill-rule="evenodd" clip-rule="evenodd" d="M12.998 20C12.998 16.4102 15.9082 13.5 19.498 13.5C23.0879 13.5 25.998 16.4102 25.998 20C25.998 21.7855 25.2799 23.4007 24.1136 24.5767L24.1665 24.6292L24.1136 24.5767C23.6774 25.0166 23.1792 25.3943 22.6337 25.6954C21.7052 26.2079 20.6377 26.5 19.498 26.5C15.9082 26.5 12.998 23.5899 12.998 20ZM25.145 24.9359C26.2991 23.6167 26.998 21.8903 26.998 20C26.998 15.8579 23.6402 12.5 19.498 12.5C15.3559 12.5 11.998 15.8579 11.998 20C11.998 24.1421 15.3559 27.5 19.498 27.5C20.811 27.5 22.0442 27.163 23.1169 26.5709L22.8753 26.1331L23.1169 26.5709C23.591 26.3092 24.0337 25.9976 24.4382 25.6433L27.1484 28.3536C27.3437 28.5488 27.6602 28.5488 27.8555 28.3536C28.0508 28.1583 28.0508 27.8417 27.8555 27.6464L25.145 24.9359Z" fill="#232323"/>
</svg>
